<svg xmlns="http://www.w3.org/2000/svg" version="1.1" xmlns:xlink="http://www.w3.org/1999/xlink" xmlns:svgjs="http://svgjs.dev/svgjs" width="100%" height="100%" viewBox="0 0 1000 600"><rect width="1000" height="600" x="0" y="0" fill="#ffe8f5"/><g><circle r="166.66666666666666" cx="329.34170023600257" cy="351.56390445185207" fill="#8000ff" transform="matrix(0.7684031234886601,0,0,0.7684031234886601,0,29.857186269236195)"/><path d="M276.0976498272955 426.5638967733241L258.95479320344475 426.5638967733241L258.95479320344475 278.4984250655856L313.1512201340562 278.4984250655856Q329.4607434498031 278.4984250655856 339.9369336088229 283.7365201450956Q350.4428856717037 289.00437712846633 355.5916950396311 299.59961490292966Q360.74050440755843 310.194852677393 360.74050440755843 326.50437599313983L360.74050440755843 326.50437599313983Q360.74050440755843 342.57580407799986 355.5916950396311 353.82580373740194Q350.4428856717037 365.0758033968039 339.9369336088229 370.9686603612526Q329.4607434498031 376.8615173257013 313.1512201340562 376.8615173257013L313.1512201340562 376.8615173257013L276.0976498272955 376.8615173257013L276.0976498272955 426.5638967733241ZM276.0976498272955 293.498424611455L276.0976498272955 361.8615177798319L313.1512201340562 361.8615177798319Q329.0143148918903 361.8615177798319 336.097648010773 352.6353275829678Q343.151219225795 343.40913738610374 343.151219225795 326.50437599313983L343.151219225795 326.50437599313983Q343.151219225795 309.3615193692891 336.097648010773 301.41509103844163Q329.0143148918903 293.498424611455 313.1512201340562 293.498424611455L313.1512201340562 293.498424611455L276.0976498272955 293.498424611455ZM399.72859846527456 426.5638967733241L383.24050372636253 426.5638967733241L383.24050372636253 319.421042874257L399.72859846527456 319.421042874257L399.72859846527456 426.5638967733241ZM399.72859846527456 295.8496150164623L383.24050372636253 295.8496150164623L383.24050372636253 276.56390131463024L399.72859846527456 276.56390131463024L399.72859846527456 295.8496150164623Z " fill="#ffe8f5" transform="matrix(0.7684031234886601,0,0,0.7684031234886601,0,29.857186269236195)"/><path d="M596.1969408681966 424.45698394286825L579.3416950684375 424.45698394286825L579.3416950684375 278.875650863352L632.6288523624675 278.875650863352Q648.6647459358494 278.875650863352 658.965173924591 284.0258648577228Q669.2948644928462 289.2053414316071 674.3572907486766 299.62281973840265Q679.419717004507 310.04029804519814 679.419717004507 326.07619161858014L679.419717004507 326.07619161858014Q679.419717004507 341.8779845558542 674.3572907486766 352.9392396119461Q669.2948644928462 364.000494668038 658.965173924591 369.79448541170524Q648.6647459358494 375.58847615537235 632.6288523624675 375.58847615537235L632.6288523624675 375.58847615537235L596.1969408681966 375.58847615537235L596.1969408681966 424.45698394286825ZM596.1969408681966 293.6239909381412L596.1969408681966 360.84013608058314L632.6288523624675 360.84013608058314Q648.2258072431473 360.84013608058314 655.1903011673533 351.76873643140726Q662.1255325120459 342.6973367822314 662.1255325120459 326.07619161858014L662.1255325120459 326.07619161858014Q662.1255325120459 309.22094581882106 655.1903011673533 301.40783708872436Q648.2258072431473 293.6239909381412 632.6288523624675 293.6239909381412L632.6288523624675 293.6239909381412L596.1969408681966 293.6239909381412ZM717.7536961671535 424.45698394286825L701.5422271166908 424.45698394286825L701.5422271166908 319.1116976943741L717.7536961671535 319.1116976943741L717.7536961671535 424.45698394286825ZM717.7536961671535 295.93573471970535L701.5422271166908 295.93573471970535L701.5422271166908 276.9735831949764L717.7536961671535 276.9735831949764L717.7536961671535 295.93573471970535ZM813.8227447098776 424.45698394286825L796.9674989101185 424.45698394286825L796.9674989101185 278.875650863352L828.3662467280725 278.875650863352L883.1457955772895 409.5038058114848L887.3596070272292 409.5038058114848L887.3596070272292 278.875650863352L904.2148528269882 278.875650863352L904.2148528269882 424.45698394286825L873.4598817583307 424.45698394286825L817.831718103223 293.82882899473543L813.8227447098776 293.82882899473543L813.8227447098776 424.45698394286825ZM956.4778198380468 424.45698394286825L939.6225740382877 424.45698394286825L939.6225740382877 278.875650863352L1027.0591616245379 278.875650863352L1027.0591616245379 293.82882899473543L956.4778198380468 293.82882899473543L956.4778198380468 349.86666876303167L1016.0856943069865 349.86666876303167L1016.0856943069865 364.8198468944152L956.4778198380468 364.8198468944152L956.4778198380468 424.45698394286825ZM1098.48911821692 426.56388966783817L1098.48911821692 426.56388966783817Q1082.0435485303492 426.56388966783817 1071.6260702235536 421.706301468602Q1061.1793293372448 416.87797584887943 1055.2975508550371 407.3969000865149Q1049.3865097933162 397.9158243241505 1047.1625537502923 384.0160990552519Q1044.967860286782 370.0871112068399 1044.967860286782 351.9735744880016L1044.967860286782 351.9735744880016Q1044.967860286782 333.45036165597463 1047.1625537502923 319.3165357509684Q1049.3865097933162 305.21197242547555 1055.2975508550371 295.730896663111Q1061.1793293372448 286.2498209007466 1071.6260702235536 281.39223270151047Q1082.0435485303492 276.56390708178776 1098.48911821692 276.56390708178776L1098.48911821692 276.56390708178776Q1106.0681263109086 276.56390708178776 1113.5300840868435 277.29547156962457Q1121.0213044422921 278.0270360574614 1127.546859673796 279.19753923800016Q1134.0724149053 280.3387798390255 1138.7251650479418 281.39223270151047L1138.7251650479418 281.39223270151047L1138.0813882986454 295.52605860651676Q1133.4579007355171 294.6774438006261 1126.6982448679055 293.82882899473543Q1119.9678515798073 292.9802141888448 1113.0033576556011 292.36570001906193Q1106.0681263109086 291.7219232697656 1100.3619233057818 291.7219232697656L1100.3619233057818 291.7219232697656Q1088.364265705259 291.7219232697656 1080.8730453498106 295.291957970409Q1073.4110875738754 298.8912552505659 1069.4021141805301 306.3532130265009Q1065.3931407871846 313.8444333819494 1063.9300118115111 325.1105264946355Q1062.437620256324 336.37661960732174 1062.437620256324 351.9735744880016L1062.437620256324 351.9735744880016Q1062.437620256324 367.1608532554928 1063.9300118115111 378.426946368179Q1065.3931407871846 389.69303948086525 1069.285063862476 396.950159200206Q1073.2062495172813 404.23654149906014 1080.78525761127 407.80657619970356Q1088.364265705259 411.4058734798604 1100.5960239418896 411.4058734798604L1100.5960239418896 411.4058734798604Q1109.4333229549577 411.4058734798604 1120.084901897861 410.2353702993216Q1130.707218261251 409.06486711878273 1138.0813882986454 407.80657619970356L1138.0813882986454 407.80657619970356L1138.7251650479418 422.1452401613041Q1133.6627387921114 423.1986930237891 1126.932345504013 424.25214588627404Q1120.1726896364016 425.305598748759 1112.7985195990068 425.92011291854186Q1105.4243495616124 426.56388966783817 1098.48911821692 426.56388966783817Z " fill="#8000ff" transform="matrix(0.7684031234886601,0,0,0.7684031234886601,0,29.857186269236195)"/></g></svg>